<svg width="71" height="88" viewBox="0 0 71 88" fill="none" xmlns="http://www.w3.org/2000/svg">
<path d="M0 9.78752C0 4.61151 4.19599 0.415527 9.372 0.415527H48.7156C51.1794 0.415527 53.544 1.38569 55.2979 3.11607L68.2103 15.8558C69.9952 17.6169 71 20.0198 71 22.5273V78.3735C71 83.5495 66.804 87.7455 61.628 87.7455H9.372C4.19599 87.7455 0 83.5495 0 78.3735V9.78752Z" fill="white"/>
<path d="M31.1812 19.9991C31.3689 16.5971 35.5595 16.1829 36.6541 19.9991C37.5298 23.0521 36.1216 27.9571 35.2251 31.4594C36.1217 33.5187 39.0503 37.3349 40.7957 39.0212C46.6236 38.1337 49.9074 38.2326 52.0669 39.2579C54.9957 40.6483 54.3744 44.0691 51.5344 44.3462C49.1086 44.5828 45.529 44.3461 40.4407 40.1157C39.1193 40.2932 35.1808 41.0565 30.4712 42.6895C28.6666 45.5886 26.1519 49.5538 24.0219 51.2687C20.5311 54.0791 17.8982 53.162 17.1587 51.6237C16.1528 48.902 20.2353 46.3578 27.6607 42.6895C28.8342 40.3622 31.542 34.5422 32.9857 29.8799C32.3546 28.3712 30.9445 24.2887 31.1812 19.9991ZM26.6549 44.287C16.5374 48.6529 17.0108 51.5941 18.9041 51.8899C20.7975 52.1857 23.1345 49.7894 26.6549 44.287ZM51.4162 41.6837C51.2978 38.9028 47.0378 38.9028 41.4762 39.8495C47.9549 44.4645 51.4162 43.6362 51.4162 41.6837ZM34.7312 32.572C33.1692 37.187 31.6545 40.4314 31.0924 41.4766C35.3051 40.175 38.646 39.4748 39.7899 39.2874C37.4469 36.6368 35.4412 33.706 34.7312 32.572ZM33.5182 28.4007C35.9736 20.5612 35.1453 18.0762 33.2816 18.3424C31.3291 18.6678 31.5953 24.2295 33.5182 28.4007Z" fill="#FF2116"/>
<path d="M9.37207 1.69385H48.7158C50.8435 1.6939 52.8858 2.53152 54.4004 4.02588L67.3125 16.7651C68.854 18.286 69.7216 20.3615 69.7217 22.5269V78.3735C69.7217 82.8437 66.0981 86.4673 61.6279 86.4673H9.37207C4.90188 86.4673 1.27832 82.8437 1.27832 78.3735V9.7876C1.27832 5.31741 4.90188 1.69385 9.37207 1.69385Z" stroke="#FF2116" stroke-width="2.556"/>
<path d="M24.7915 69.996H21.4114V68.049H24.7915C25.3443 68.049 25.792 67.9589 26.1345 67.7786C26.4831 67.5923 26.7384 67.3399 26.9007 67.0215C27.0629 66.697 27.1441 66.3274 27.1441 65.9128C27.1441 65.5102 27.0629 65.1346 26.9007 64.7861C26.7384 64.4375 26.4831 64.1551 26.1345 63.9388C25.792 63.7224 25.3443 63.6143 24.7915 63.6143H22.2226V74.7822H19.7438V61.6583H24.7915C25.813 61.6583 26.6844 61.8416 27.4055 62.2082C28.1326 62.5687 28.6854 63.0705 29.064 63.7134C29.4486 64.3504 29.6408 65.0775 29.6408 65.8947C29.6408 66.742 29.4486 67.4721 29.064 68.0851C28.6854 68.698 28.1326 69.1697 27.4055 69.5002C26.6844 69.8307 25.813 69.996 24.7915 69.996ZM35.5087 74.7822H32.6785L32.6965 72.8353H35.5087C36.2719 72.8353 36.9119 72.667 37.4287 72.3305C37.9454 71.988 38.336 71.4982 38.6004 70.8613C38.8648 70.2183 38.997 69.4491 38.997 68.5538V67.8778C38.997 67.1867 38.9219 66.5768 38.7717 66.048C38.6215 65.5192 38.3991 65.0745 38.1047 64.714C37.8162 64.3534 37.4587 64.08 37.0321 63.8937C36.6054 63.7074 36.1157 63.6143 35.5628 63.6143H32.6244V61.6583H35.5628C36.4402 61.6583 37.2394 61.8055 37.9605 62.1C38.6876 62.3944 39.3155 62.8181 39.8443 63.3709C40.3791 63.9177 40.7878 64.5727 41.0702 65.3359C41.3586 66.0991 41.5028 66.9523 41.5028 67.8958V68.5538C41.5028 69.4912 41.3586 70.3445 41.0702 71.1137C40.7878 71.8768 40.3791 72.5318 39.8443 73.0786C39.3155 73.6255 38.6846 74.0461 37.9515 74.3406C37.2183 74.635 36.4041 74.7822 35.5087 74.7822ZM34.0666 61.6583V74.7822H31.5878V61.6583H34.0666ZM46.0908 61.6583V74.7822H43.612V61.6583H46.0908ZM51.3818 67.3279V69.2839H45.4418V67.3279H51.3818ZM52.0759 61.6583V63.6143H45.4418V61.6583H52.0759Z" fill="black"/>
</svg>
