<svg width="101" height="100" viewBox="0 0 101 100" fill="none" xmlns="http://www.w3.org/2000/svg">
<g clip-path="url(#clip0_2061_4920)">
<path d="M7.00769 58.0753L9.28367 51.9947L19.7124 51.2474M22.8376 51.0435L92.4756 46.1179" stroke="#3C838B" stroke-miterlimit="22.9256" stroke-linecap="round" stroke-linejoin="round"/>
<path d="M8.67221 63.8163L7.00769 58.0754L77.495 53.3197M81.5374 53.0479L89.826 52.5044" stroke="#3C838B" stroke-miterlimit="22.9256" stroke-linecap="round" stroke-linejoin="round"/>
<path d="M72.6713 47.511L73.1808 45.3709C73.9281 42.1438 75.3549 41.974 78.8538 41.7362L93.4268 40.6831C93.4268 40.6831 92.9173 58.2115 75.8984 63.4089" stroke="#3C838B" stroke-miterlimit="22.9256" stroke-linecap="round" stroke-linejoin="round"/>
<path d="M70.1914 47.681L58.6417 37.3541C56.9432 35.8595 56.5016 34.7724 54.3276 34.9423L25.691 36.8786" stroke="#3C838B" stroke-miterlimit="22.9256" stroke-linecap="round" stroke-linejoin="round"/>
<path d="M30.0052 36.5725L30.9564 50.5001" stroke="#3C838B" stroke-miterlimit="22.9256" stroke-linecap="round" stroke-linejoin="round"/>
<path d="M39.0752 27.1289L44.0687 35.6213" stroke="#3C838B" stroke-miterlimit="22.9256" stroke-linecap="round" stroke-linejoin="round"/>
<path d="M47.8054 29.0994L55.6864 28.3521" stroke="#3C838B" stroke-miterlimit="22.9256" stroke-linecap="round" stroke-linejoin="round"/>
<path d="M53.5123 28.5557L53.9539 34.942" stroke="#3C838B" stroke-miterlimit="22.9256" stroke-linecap="round" stroke-linejoin="round"/>
<path d="M62.5483 40.853L41.1473 42.5515C37.7503 42.8233 37.3427 43.4687 37.5805 46.7977L37.8862 50.0249" stroke="#3C838B" stroke-miterlimit="22.9256" stroke-linecap="round" stroke-linejoin="round"/>
<path d="M45.1558 42.2456L45.5634 49.4132" stroke="#3C838B" stroke-miterlimit="22.9256" stroke-linecap="round" stroke-linejoin="round"/>
<path d="M53.0707 41.6003L53.4783 48.8699" stroke="#3C838B" stroke-miterlimit="22.9256" stroke-linecap="round" stroke-linejoin="round"/>
<path d="M15.5001 75.4C26.3704 85.4891 39.5847 65.5828 49.4359 75.4" stroke="#3C838B" stroke-miterlimit="22.9256" stroke-linecap="round" stroke-linejoin="round"/>
<path d="M39.6187 75.4C50.489 85.4891 63.7372 65.5828 73.5545 75.4" stroke="#3C838B" stroke-miterlimit="22.9256" stroke-linecap="round" stroke-linejoin="round"/>
<path d="M25.9968 66.1264C36.8672 76.2154 50.1154 56.3091 59.9326 66.1264" stroke="#3C838B" stroke-miterlimit="22.9256" stroke-linecap="round" stroke-linejoin="round"/>
<path d="M50.1493 66.1264C60.9857 76.2154 74.2339 56.3091 84.0511 66.1264" stroke="#3C838B" stroke-miterlimit="22.9256" stroke-linecap="round" stroke-linejoin="round"/>
<path d="M1.30078 66.1264C12.1371 76.2154 25.3853 56.3091 35.2026 66.1264" stroke="#3C838B" stroke-miterlimit="22.9256" stroke-linecap="round" stroke-linejoin="round"/>
</g>
<defs>
<clipPath id="clip0_2061_4920">
<rect width="92.65" height="51.6001" fill="white" transform="translate(1.03882 26.9253)"/>
</clipPath>
</defs>
</svg>
