<svg width="101" height="101" viewBox="0 0 101 101" fill="none" xmlns="http://www.w3.org/2000/svg">
<path d="M44.1636 65.1721H80.5803" stroke="#3C838B" stroke-width="1.10086" stroke-miterlimit="22.9256" stroke-linecap="round" stroke-linejoin="round"/>
<path d="M35.127 65.1724H19.8677" stroke="#3C838B" stroke-width="1.10086" stroke-miterlimit="22.9256" stroke-linecap="round" stroke-linejoin="round"/>
<path d="M19.8676 65.1727C19.6512 64.6858 19.543 64.1446 19.543 63.6035C19.543 61.1144 21.5451 59.1123 24.0342 59.1123C25.1705 59.1123 26.1986 59.5452 27.0103 60.1945C27.4432 57.9219 29.4453 56.1903 31.8262 56.1903C33.9906 56.1903 35.8304 57.5972 36.4797 59.5452C37.2373 58.95 38.2113 58.5712 39.2394 58.5712C40.4298 58.5712 41.512 59.0582 42.3237 59.7616C42.7566 57.5972 44.7046 55.9739 46.9773 55.9739C49.4122 55.9739 51.4144 57.7595 51.739 60.0863C52.4966 59.4911 53.5247 59.1664 54.6069 59.1664C56.3926 59.1664 57.9077 60.0863 58.7193 61.5473" stroke="#3C838B" stroke-width="1.10086" stroke-miterlimit="22.9256" stroke-linecap="round" stroke-linejoin="round"/>
<path d="M56.8795 65.1733C59.3686 60.3033 59.9097 57.6518 65.1044 60.4656C68.4593 62.3054 69.8662 63.5499 66.7277 65.1733" stroke="#3C838B" stroke-width="1.10086" stroke-miterlimit="22.9256" stroke-linecap="round" stroke-linejoin="round"/>
<path d="M67.7018 62.1423C69.2169 59.3286 71.1108 57.4347 74.4115 60.4649C76.5219 62.4129 77.063 63.9821 76.5219 65.1725" stroke="#3C838B" stroke-width="1.10086" stroke-miterlimit="22.9256" stroke-linecap="round" stroke-linejoin="round"/>
<path d="M67.4312 32.2195C66.6736 33.8428 63.0482 42.1759 61.6954 59.3291" stroke="#3C838B" stroke-width="1.10086" stroke-miterlimit="22.9256" stroke-linecap="round" stroke-linejoin="round"/>
<path d="M70.2451 33.3557C68.9464 36.4942 65.9703 45.0437 64.8881 60.3571" stroke="#3C838B" stroke-width="1.10086" stroke-miterlimit="22.9256" stroke-linecap="round" stroke-linejoin="round"/>
<path fill-rule="evenodd" clip-rule="evenodd" d="M79.7685 31.2992C82.7446 33.0307 84.5844 35.9527 85.0714 39.1994L70.245 30.6498C73.2752 29.4053 76.7383 29.5676 79.7685 31.2992Z" stroke="#3C838B" stroke-width="1.10086" stroke-miterlimit="22.9256" stroke-linecap="round" stroke-linejoin="round"/>
<path fill-rule="evenodd" clip-rule="evenodd" d="M75.5479 22.696C78.524 20.9644 82.0412 20.8562 85.0714 22.0467L70.245 30.6503C70.732 27.4037 72.5718 24.4275 75.5479 22.696Z" stroke="#3C838B" stroke-width="1.10086" stroke-miterlimit="22.9256" stroke-linecap="round" stroke-linejoin="round"/>
<path fill-rule="evenodd" clip-rule="evenodd" d="M68.7299 21.235C66.7819 18.4212 63.6976 16.7438 60.4509 16.5273L70.1368 30.7044C71.0567 27.566 70.6779 24.1029 68.7299 21.235Z" stroke="#3C838B" stroke-width="1.10086" stroke-miterlimit="22.9256" stroke-linecap="round" stroke-linejoin="round"/>
<path d="M70.191 30.4337C70.191 30.4878 70.191 30.596 70.2451 30.6501L54.6611 23.4534C57.5831 21.9383 61.1003 21.7759 64.1847 23.2369C64.6717 23.4534 65.1046 23.6698 65.5375 23.9404" stroke="#3C838B" stroke-width="1.10086" stroke-miterlimit="22.9256" stroke-linecap="round" stroke-linejoin="round"/>
<path fill-rule="evenodd" clip-rule="evenodd" d="M60.7215 31.2992C63.6976 29.5676 67.1607 29.4053 70.245 30.6498L55.3645 39.1994C55.8515 35.9527 57.7454 33.0307 60.7215 31.2992Z" stroke="#3C838B" stroke-width="1.10086" stroke-miterlimit="22.9256" stroke-linecap="round" stroke-linejoin="round"/>
<path d="M31.5015 32.2195C30.744 33.8428 27.0644 42.23 25.7657 59.4373" stroke="#3C838B" stroke-width="1.10086" stroke-miterlimit="22.9256" stroke-linecap="round" stroke-linejoin="round"/>
<path d="M34.9105 31.9485C34.9105 31.9485 30.9063 39.4699 29.2289 56.9478" stroke="#3C838B" stroke-width="1.10086" stroke-miterlimit="22.9256" stroke-linecap="round" stroke-linejoin="round"/>
<path fill-rule="evenodd" clip-rule="evenodd" d="M43.7848 31.2992C46.815 33.0307 48.6548 35.9527 49.1418 39.1994L34.2612 30.6498C37.3456 29.4053 40.8087 29.5676 43.7848 31.2992Z" stroke="#3C838B" stroke-width="1.10086" stroke-miterlimit="22.9256" stroke-linecap="round" stroke-linejoin="round"/>
<path fill-rule="evenodd" clip-rule="evenodd" d="M39.6182 22.696C42.5943 20.9644 46.1115 20.8562 49.1418 22.0467L34.2612 30.6503C34.8023 27.4037 36.6421 24.4275 39.6182 22.696Z" stroke="#3C838B" stroke-width="1.10086" stroke-miterlimit="22.9256" stroke-linecap="round" stroke-linejoin="round"/>
<path fill-rule="evenodd" clip-rule="evenodd" d="M32.8002 21.235C30.8522 18.4212 27.7679 16.7438 24.5212 16.5273L34.153 30.7044C35.127 27.566 34.7482 24.1029 32.8002 21.235Z" stroke="#3C838B" stroke-width="1.10086" stroke-miterlimit="22.9256" stroke-linecap="round" stroke-linejoin="round"/>
<path d="M34.2612 30.4337C34.2612 30.4878 34.2612 30.596 34.2612 30.6501L18.7313 23.4534C21.6533 21.9383 25.1164 21.7759 28.2549 23.2369C28.7419 23.4534 29.1748 23.6698 29.5535 23.9404" stroke="#3C838B" stroke-width="1.10086" stroke-miterlimit="22.9256" stroke-linecap="round" stroke-linejoin="round"/>
<path fill-rule="evenodd" clip-rule="evenodd" d="M24.7918 31.2992C27.7679 29.5676 31.231 29.4053 34.2612 30.6498L19.4348 39.1994C19.9218 35.9527 21.7616 33.0307 24.7918 31.2992Z" stroke="#3C838B" stroke-width="1.10086" stroke-miterlimit="22.9256" stroke-linecap="round" stroke-linejoin="round"/>
<path d="M24.0883 80.4321C34.4776 90.0639 47.1396 71.0168 56.5549 80.4321" stroke="#3C838B" stroke-width="1.10086" stroke-miterlimit="22.9256" stroke-linecap="round" stroke-linejoin="round"/>
<path d="M47.1937 80.4321C57.583 90.0639 70.245 71.0168 79.6603 80.4321" stroke="#3C838B" stroke-width="1.10086" stroke-miterlimit="22.9256" stroke-linecap="round" stroke-linejoin="round"/>
<path d="M34.0988 71.5041C44.5422 81.19 57.2042 62.0888 66.6195 71.5041" stroke="#3C838B" stroke-width="1.10086" stroke-miterlimit="22.9256" stroke-linecap="round" stroke-linejoin="round"/>
<path d="M57.2042 71.5041C67.6477 81.19 80.3096 62.0888 89.7249 71.5041" stroke="#3C838B" stroke-width="1.10086" stroke-miterlimit="22.9256" stroke-linecap="round" stroke-linejoin="round"/>
<path d="M10.4523 71.5041C20.8416 81.19 33.5036 62.0888 42.9189 71.5041" stroke="#3C838B" stroke-width="1.10086" stroke-miterlimit="22.9256" stroke-linecap="round" stroke-linejoin="round"/>
</svg>
