<svg width="101" height="101" viewBox="0 0 101 101" fill="none" xmlns="http://www.w3.org/2000/svg">
<path d="M17.3114 60.9599C15.5821 58.2622 13.9911 53.8352 14.4062 49.0622C14.6829 45.2577 16.8964 40.6923 21.6693 41.7299C22.361 47.6096 29.4858 51.4141 38.2016 52.9359M42.6286 53.4893C45.9489 53.766 49.4076 53.6968 52.7279 53.3509C57.8466 52.7976 62.6887 51.4141 66.3549 49.3389M70.7128 45.7419C71.7504 44.4968 72.5113 43.1134 72.8571 41.5916C72.8571 41.5916 85.1699 41.9374 76.3849 60.6141" stroke="#3C838B" stroke-miterlimit="22.9256" stroke-linecap="round" stroke-linejoin="round"/>
<path d="M26.9265 48.9931V40.6924C26.9265 38.963 28.3099 37.5796 30.0392 37.5796C31.6994 37.5796 33.0828 38.963 33.0828 40.6924V41.1074M33.0828 45.3961V51.6908" stroke="#3C838B" stroke-miterlimit="22.9256" stroke-linecap="round" stroke-linejoin="round"/>
<path d="M55.9789 49.7543V44.1513C55.9789 42.2145 57.5699 40.6235 59.5759 40.6235C61.5128 40.6235 63.1037 42.2145 63.1037 44.1513V50.8611" stroke="#3C838B" stroke-miterlimit="22.9256" stroke-linecap="round" stroke-linejoin="round"/>
<path d="M59.0918 37.3721C61.0019 37.3721 62.5504 35.8236 62.5504 33.9135C62.5504 32.0033 61.0019 30.4548 59.0918 30.4548C57.1816 30.4548 55.6331 32.0033 55.6331 33.9135C55.6331 35.8236 57.1816 37.3721 59.0918 37.3721Z" stroke="#3C838B" stroke-miterlimit="22.9256" stroke-linecap="round" stroke-linejoin="round"/>
<path d="M37.0948 48.3707L29.6934 42.8369C28.8633 42.2835 28.7249 41.1768 29.2783 40.4159C29.8317 39.655 30.9385 39.5166 31.6994 40.07L38.3399 44.9813" stroke="#3C838B" stroke-miterlimit="22.9256" stroke-linecap="round" stroke-linejoin="round"/>
<path d="M38.3399 44.9814H43.8045C44.773 44.9814 45.5339 45.7423 45.5339 46.6416C45.5339 47.61 44.773 48.3709 43.8045 48.3709H37.0948" stroke="#3C838B" stroke-miterlimit="22.9256" stroke-linecap="round" stroke-linejoin="round"/>
<path d="M30.3159 33.8448C32.4552 33.8448 34.1895 32.1105 34.1895 29.9711C34.1895 27.8317 32.4552 26.0974 30.3159 26.0974C28.1765 26.0974 26.4422 27.8317 26.4422 29.9711C26.4422 32.1105 28.1765 33.8448 30.3159 33.8448Z" stroke="#3C838B" stroke-miterlimit="22.9256" stroke-linecap="round" stroke-linejoin="round"/>
<path d="M24.2287 28.7258H36.4031" stroke="#3C838B" stroke-miterlimit="22.9256" stroke-linecap="round" stroke-linejoin="round"/>
<path d="M40.0001 48.3708L34.0513 63.4505" stroke="#3C838B" stroke-miterlimit="22.9256" stroke-linecap="round" stroke-linejoin="round"/>
<path d="M43.597 48.3708L40.8301 63.1046" stroke="#3C838B" stroke-miterlimit="22.9256" stroke-linecap="round" stroke-linejoin="round"/>
<path d="M48.3008 53.6279C48.0933 52.6595 48.6467 51.7602 49.6151 51.4835L59.2993 48.855" stroke="#3C838B" stroke-miterlimit="22.9256" stroke-linecap="round" stroke-linejoin="round"/>
<path d="M16.6888 76.5931C28.794 87.7991 43.5278 65.6638 54.4571 76.5931" stroke="#3C838B" stroke-miterlimit="22.9256" stroke-linecap="round" stroke-linejoin="round"/>
<path d="M43.5278 76.5931C55.6331 87.7991 70.3668 65.6638 81.2961 76.5931" stroke="#3C838B" stroke-miterlimit="22.9256" stroke-linecap="round" stroke-linejoin="round"/>
<path d="M28.379 66.2863C40.4842 77.4922 55.218 55.2878 66.1473 66.2863" stroke="#3C838B" stroke-miterlimit="22.9256" stroke-linecap="round" stroke-linejoin="round"/>
<path d="M55.2181 66.2863C67.3233 77.4922 82.0571 55.2878 92.9864 66.2863" stroke="#3C838B" stroke-miterlimit="22.9256" stroke-linecap="round" stroke-linejoin="round"/>
<path d="M0.91748 66.2863C12.9535 77.4922 27.6873 55.2878 38.6166 66.2863" stroke="#3C838B" stroke-miterlimit="22.9256" stroke-linecap="round" stroke-linejoin="round"/>
</svg>
