<svg width="101" height="101" viewBox="0 0 101 101" fill="none" xmlns="http://www.w3.org/2000/svg">
<g clip-path="url(#clip0_2344_865)">
<path d="M82.8332 65.3066H33.5204M28.7519 65.3066H9.1991" stroke="#3C838B" stroke-miterlimit="22.9256" stroke-linecap="round" stroke-linejoin="round"/>
<path d="M9.1991 90.4894C22.2215 102.573 38.0591 78.7118 49.8367 90.4894" stroke="#3C838B" stroke-miterlimit="22.9256" stroke-linecap="round" stroke-linejoin="round"/>
<path d="M38.0973 90.4894C51.1197 102.573 66.9764 78.7118 78.754 90.4894" stroke="#3C838B" stroke-miterlimit="22.9256" stroke-linecap="round" stroke-linejoin="round"/>
<path d="M21.7812 79.3634C34.8036 91.4475 50.6412 67.5858 62.4188 79.3634" stroke="#3C838B" stroke-miterlimit="22.9256" stroke-linecap="round" stroke-linejoin="round"/>
<path d="M50.68 79.3634C63.7024 91.4475 79.5591 67.5858 91.3367 79.3634" stroke="#3C838B" stroke-miterlimit="22.9256" stroke-linecap="round" stroke-linejoin="round"/>
<path d="M67.302 53.9883V65.3063" stroke="#3C838B" stroke-miterlimit="22.9256" stroke-linecap="round" stroke-linejoin="round"/>
<path fill-rule="evenodd" clip-rule="evenodd" d="M72.9709 36.0254C74.7519 39.0129 75.8435 42.5174 75.8435 45.4283C75.8435 50.1585 72.0133 53.9886 67.3023 53.9886C62.5721 53.9886 58.742 50.1585 58.742 45.4283C58.742 42.6515 59.7378 39.3384 61.3848 36.4467C65.483 29.2461 68.6237 28.7864 72.9709 36.0254Z" stroke="#3C838B" stroke-miterlimit="22.9256"/>
<path d="M46.0071 53.9883V65.3063" stroke="#3C838B" stroke-miterlimit="22.9256" stroke-linecap="round" stroke-linejoin="round"/>
<path fill-rule="evenodd" clip-rule="evenodd" d="M51.6749 36.0254C53.4559 39.0129 54.5666 42.5174 54.5666 45.4283C54.5666 50.1585 50.7365 53.9886 46.0063 53.9886C41.2953 53.9886 37.4651 50.1585 37.4651 45.4283C37.4651 42.6515 38.461 39.3384 40.1079 36.4467C44.187 29.2461 47.3469 28.7864 51.6749 36.0254Z" stroke="#3C838B" stroke-miterlimit="22.9256"/>
<path d="M24.7303 53.9883V65.3063" stroke="#3C838B" stroke-miterlimit="22.9256" stroke-linecap="round" stroke-linejoin="round"/>
<path fill-rule="evenodd" clip-rule="evenodd" d="M30.3995 36.0254C32.1805 39.0129 33.2912 42.5174 33.2912 45.4283C33.2912 50.1585 29.4611 53.9886 24.7309 53.9886C20.0199 53.9886 16.1897 50.1585 16.1897 45.4283C16.1897 42.6515 17.1856 39.3384 18.8134 36.4467C22.9116 29.2461 26.0714 28.7864 30.3995 36.0254Z" stroke="#3C838B" stroke-miterlimit="22.9256"/>
<path d="M78.142 24.1901C81.59 24.1901 84.3851 21.3949 84.3851 17.947C84.3851 14.499 81.59 11.7039 78.142 11.7039C74.694 11.7039 71.8989 14.499 71.8989 17.947C71.8989 21.3949 74.694 24.1901 78.142 24.1901Z" stroke="#3C838B" stroke-miterlimit="22.9256" stroke-linecap="round" stroke-linejoin="round"/>
<path d="M78.142 6.24609V9.55915" stroke="#3C838B" stroke-miterlimit="22.9256" stroke-linecap="round" stroke-linejoin="round"/>
<path d="M88.2915 12.0869L85.3998 13.753" stroke="#3C838B" stroke-miterlimit="22.9256" stroke-linecap="round" stroke-linejoin="round"/>
<path d="M88.2915 23.7878L85.3998 22.1409" stroke="#3C838B" stroke-miterlimit="22.9256" stroke-linecap="round" stroke-linejoin="round"/>
<path d="M78.142 29.6481V26.3159" stroke="#3C838B" stroke-miterlimit="22.9256" stroke-linecap="round" stroke-linejoin="round"/>
<path d="M68.0121 23.7878L70.8847 22.1409" stroke="#3C838B" stroke-miterlimit="22.9256" stroke-linecap="round" stroke-linejoin="round"/>
<path d="M68.0121 12.0869L70.8847 13.753" stroke="#3C838B" stroke-miterlimit="22.9256" stroke-linecap="round" stroke-linejoin="round"/>
<path d="M83.4085 8.8313L82.3361 10.6889" stroke="#3C838B" stroke-miterlimit="22.9256" stroke-linecap="round" stroke-linejoin="round"/>
<path d="M88.6552 17.9468H86.5295" stroke="#3C838B" stroke-miterlimit="22.9256" stroke-linecap="round" stroke-linejoin="round"/>
<path d="M83.4085 27.0435L82.3361 25.2051" stroke="#3C838B" stroke-miterlimit="22.9256" stroke-linecap="round" stroke-linejoin="round"/>
<path d="M72.895 27.0435L73.9674 25.2051" stroke="#3C838B" stroke-miterlimit="22.9256" stroke-linecap="round" stroke-linejoin="round"/>
<path d="M67.6288 17.9468H69.7737" stroke="#3C838B" stroke-miterlimit="22.9256" stroke-linecap="round" stroke-linejoin="round"/>
<path d="M72.895 8.8313L73.9674 10.6889" stroke="#3C838B" stroke-miterlimit="22.9256" stroke-linecap="round" stroke-linejoin="round"/>
</g>
<defs>
<clipPath id="clip0_2344_865">
<rect width="82.3285" height="88" fill="white" transform="translate(9.10315 6.12964)"/>
</clipPath>
</defs>
</svg>
