<svg width="101" height="101" viewBox="0 0 101 101" fill="none" xmlns="http://www.w3.org/2000/svg">
<path d="M35.6237 28.2777C38.4621 28.2777 40.763 25.9767 40.763 23.1383C40.763 20.3 38.4621 17.999 35.6237 17.999C32.7853 17.999 30.4844 20.3 30.4844 23.1383C30.4844 25.9767 32.7853 28.2777 35.6237 28.2777Z" stroke="#3C838B" stroke-miterlimit="22.9256" stroke-linecap="round" stroke-linejoin="round"/>
<path d="M35.6237 13.5168V16.2658" stroke="#3C838B" stroke-miterlimit="22.9256" stroke-linecap="round" stroke-linejoin="round"/>
<path d="M43.99 18.3574L41.5996 19.6721" stroke="#3C838B" stroke-miterlimit="22.9256" stroke-linecap="round" stroke-linejoin="round"/>
<path d="M43.99 27.9782L41.5996 26.6038" stroke="#3C838B" stroke-miterlimit="22.9256" stroke-linecap="round" stroke-linejoin="round"/>
<path d="M35.6237 32.7597V30.0706" stroke="#3C838B" stroke-miterlimit="22.9256" stroke-linecap="round" stroke-linejoin="round"/>
<path d="M27.3171 27.9782L29.6478 26.6038" stroke="#3C838B" stroke-miterlimit="22.9256" stroke-linecap="round" stroke-linejoin="round"/>
<path d="M27.3171 18.3574L29.6478 19.6721" stroke="#3C838B" stroke-miterlimit="22.9256" stroke-linecap="round" stroke-linejoin="round"/>
<path d="M39.9264 15.668L39.0897 17.162" stroke="#3C838B" stroke-miterlimit="22.9256" stroke-linecap="round" stroke-linejoin="round"/>
<path d="M44.2888 23.1387H42.5558" stroke="#3C838B" stroke-miterlimit="22.9256" stroke-linecap="round" stroke-linejoin="round"/>
<path d="M39.9264 30.6675L39.0897 29.1138" stroke="#3C838B" stroke-miterlimit="22.9256" stroke-linecap="round" stroke-linejoin="round"/>
<path d="M31.321 30.6675L32.1577 29.1138" stroke="#3C838B" stroke-miterlimit="22.9256" stroke-linecap="round" stroke-linejoin="round"/>
<path d="M26.9586 23.1387H28.7514" stroke="#3C838B" stroke-miterlimit="22.9256" stroke-linecap="round" stroke-linejoin="round"/>
<path d="M31.321 15.668L32.1577 17.162" stroke="#3C838B" stroke-miterlimit="22.9256" stroke-linecap="round" stroke-linejoin="round"/>
<path d="M65.0254 31.2053V47.0416" stroke="#3C838B" stroke-miterlimit="22.9256" stroke-linecap="round" stroke-linejoin="round"/>
<path d="M57.2567 31.2053V49.9101" stroke="#3C838B" stroke-miterlimit="22.9256" stroke-linecap="round" stroke-linejoin="round"/>
<path d="M49.6674 31.2053V35.9263" stroke="#3C838B" stroke-miterlimit="22.9256" stroke-linecap="round" stroke-linejoin="round"/>
<path d="M47.8147 31.2059L55.3444 25.1702" stroke="#3C838B" stroke-miterlimit="22.9256" stroke-linecap="round" stroke-linejoin="round"/>
<path d="M66.8779 31.2059L59.408 25.1702" stroke="#3C838B" stroke-miterlimit="22.9256" stroke-linecap="round" stroke-linejoin="round"/>
<path fill-rule="evenodd" clip-rule="evenodd" d="M47.8147 31.2059L55.3444 25.1702H59.4081L66.878 31.2059H47.8147Z" stroke="#3C838B" stroke-miterlimit="22.9256" stroke-linecap="round" stroke-linejoin="round"/>
<path d="M57.2568 39.632L41.8985 38.3173C35.6836 37.7794 31.1418 37.7197 26.6001 43.2176C26.6001 43.2176 17.8752 52.7193 27.616 64.492C27.616 64.492 32.3968 70.5277 38.1337 72.7986C41.8388 73.934 47.3367 72.7388 47.3367 68.0178V63.1773" stroke="#3C838B" stroke-miterlimit="22.9256" stroke-linecap="round" stroke-linejoin="round"/>
<path d="M57.2567 42.6199H48.4123C42.7949 42.6199 38.1337 47.2811 38.1337 52.9583C38.1337 58.2171 42.1973 62.6393 47.3366 63.1772" stroke="#3C838B" stroke-miterlimit="22.9256" stroke-linecap="round" stroke-linejoin="round"/>
<path d="M70.3441 55.7069H55.5238C54.5078 55.7069 53.6115 54.8703 53.6115 53.7946C53.6115 52.7787 54.5078 51.8823 55.5238 51.8823H68.133" stroke="#3C838B" stroke-miterlimit="22.9256" stroke-linecap="round" stroke-linejoin="round"/>
<path d="M68.1329 51.8822L71.1807 46.6832C71.6588 45.727 72.8539 45.4282 73.7503 45.966C74.6467 46.5039 75.0053 47.6393 74.4675 48.5955L70.344 55.7068" stroke="#3C838B" stroke-miterlimit="22.9256" stroke-linecap="round" stroke-linejoin="round"/>
<path d="M61.9777 51.8825V49.3129C61.9777 48.9543 62.2765 48.6555 62.635 48.6555H69.9854" stroke="#3C838B" stroke-miterlimit="22.9256" stroke-linecap="round" stroke-linejoin="round"/>
<path d="M66.9976 55.707L68.6708 59.0536" stroke="#3C838B" stroke-miterlimit="22.9256" stroke-linecap="round" stroke-linejoin="round"/>
<path d="M56.8981 55.707L55.2845 59.0536" stroke="#3C838B" stroke-miterlimit="22.9256" stroke-linecap="round" stroke-linejoin="round"/>
<path d="M73.8101 59.4717H52.954C52.1174 59.4717 51.4003 60.1888 51.4003 61.0254V68.0771" stroke="#3C838B" stroke-miterlimit="22.9256" stroke-linecap="round" stroke-linejoin="round"/>
<path d="M27.0184 46.564C27.0184 46.564 24.5085 58.0976 37.5361 63.8345C37.5361 63.8345 37.058 69.3324 41.1814 70.2287" stroke="#3C838B" stroke-miterlimit="22.9256" stroke-linecap="round" stroke-linejoin="round"/>
<path d="M57.2567 36.2256H65.0255M65.0255 40.4685H57.2567" stroke="#3C838B" stroke-miterlimit="22.9256" stroke-linecap="round" stroke-linejoin="round"/>
<path d="M61.141 36.2256V40.4685" stroke="#3C838B" stroke-miterlimit="22.9256" stroke-linecap="round" stroke-linejoin="round"/>
<path d="M23.3132 83.3156C34.1297 93.3552 47.2171 73.5748 57.0176 83.3156" stroke="#3C838B" stroke-miterlimit="22.9256" stroke-linecap="round" stroke-linejoin="round"/>
<path d="M47.2769 83.3156C58.0336 93.3552 71.1807 73.5748 80.9215 83.3156" stroke="#3C838B" stroke-miterlimit="22.9256" stroke-linecap="round" stroke-linejoin="round"/>
<path d="M33.7712 74.1125C44.528 84.1521 57.6751 64.3717 67.4159 74.1125" stroke="#3C838B" stroke-miterlimit="22.9256" stroke-linecap="round" stroke-linejoin="round"/>
<path d="M57.675 74.1125C68.4915 84.1521 81.6386 64.3717 91.3794 74.1125" stroke="#3C838B" stroke-miterlimit="22.9256" stroke-linecap="round" stroke-linejoin="round"/>
<path d="M9.20996 74.1127C16.0226 80.4472 23.7315 74.8895 31.0222 72.3796" stroke="#3C838B" stroke-miterlimit="22.9256" stroke-linecap="round" stroke-linejoin="round"/>
</svg>
