<svg width="101" height="100" viewBox="0 0 101 100" fill="none" xmlns="http://www.w3.org/2000/svg">
<path d="M22.8068 65.1126C22.8068 64.8956 22.6983 64.7871 22.6983 64.5702C22.2644 62.1834 18.9011 60.773 16.7313 60.4475C14.453 60.122 11.7407 59.4711 9.78789 58.1692C7.72656 56.7588 6.53316 54.589 7.1841 52.0937C8.05203 48.622 12.0662 46.4521 15.2124 45.4757C16.5143 45.0418 17.9247 44.8248 19.4436 44.6078M21.1795 44.3908C24.7597 44.0653 28.5568 44.0653 31.5946 44.2823C36.5852 44.4993 44.6135 45.4757 47.7598 50.0324C49.1702 51.9852 48.8447 53.8295 47.9767 55.9994C47.5428 56.9758 47.3258 57.7352 47.3258 58.8201C47.4343 61.9664 49.2786 63.9192 52.0994 65.1126C58.1749 67.9334 66.3117 73.3579 66.0948 80.9523C65.9863 84.0986 64.3589 87.0278 61.3212 88.2212C57.9579 89.5231 54.2692 88.1127 51.557 86.1599C46.2409 82.3627 40.3824 80.5183 33.8729 80.5183C28.3399 80.4099 23.0238 78.674 22.3729 72.49C22.2644 71.6221 22.2644 70.8626 22.2644 69.9947" stroke="#3C838B" stroke-width="1.09785" stroke-miterlimit="22.9256" stroke-linecap="round" stroke-linejoin="round"/>
<path d="M42.5522 50.1406C43.5286 50.6831 44.3965 51.334 44.8305 51.985C45.9154 53.6124 43.6371 55.0227 43.7456 59.0369C43.8541 61.7492 45.0475 65.8719 50.5805 68.3671C59.3683 72.2728 62.623 77.1549 62.5145 80.8436C62.406 84.5323 58.9343 87.1361 53.6183 83.2304C48.1937 79.3247 41.6842 76.9379 33.8729 76.9379C21.8304 76.8294 27.1464 68.4756 26.17 63.919C25.5191 60.4473 21.9389 57.735 17.2737 56.9756C6.53313 55.2397 10.6558 50.5746 16.2973 48.8388C17.0568 48.6218 18.1417 48.4048 19.4436 48.1878M21.1794 47.9708C26.0615 47.5369 32.6795 47.5369 37.7786 48.6218" stroke="#3C838B" stroke-width="1.09785" stroke-miterlimit="22.9256" stroke-linecap="round" stroke-linejoin="round"/>
<path d="M21.1794 51.66V30.9382L32.4624 35.4949L22.9152 39.8345" stroke="#3C838B" stroke-width="1.09785" stroke-miterlimit="22.9256" stroke-linecap="round" stroke-linejoin="round"/>
<path d="M30.1842 55.9993C32.6408 55.9993 34.6323 55.0278 34.6323 53.8295C34.6323 52.6311 32.6408 51.6597 30.1842 51.6597C27.7275 51.6597 25.736 52.6311 25.736 53.8295C25.736 55.0278 27.7275 55.9993 30.1842 55.9993Z" stroke="#3C838B" stroke-width="1.09785" stroke-miterlimit="22.9256" stroke-linecap="round" stroke-linejoin="round"/>
<path d="M67.9391 38.5325C69.024 38.641 70.0004 38.7495 70.5429 38.9664C83.3448 44.174 91.4817 50.9005 83.0194 54.8061C74.4486 58.8203 67.6136 57.6269 62.1891 55.1316C51.9909 50.575 49.8211 46.4523 51.2315 43.74C52.8588 40.3768 60.0193 38.8579 65.4438 38.5325" stroke="#3C838B" stroke-width="1.09785" stroke-miterlimit="22.9256" stroke-linecap="round" stroke-linejoin="round"/>
<path d="M68.373 28.8765C67.8305 30.0699 65.0098 36.5793 63.9249 49.8152" stroke="#3C838B" stroke-width="1.09785" stroke-miterlimit="22.9256" stroke-linecap="round" stroke-linejoin="round"/>
<path d="M70.3258 30.0703C69.3494 32.7826 67.1796 39.2921 66.4202 50.5751" stroke="#3C838B" stroke-width="1.09785" stroke-miterlimit="22.9256" stroke-linecap="round" stroke-linejoin="round"/>
<path fill-rule="evenodd" clip-rule="evenodd" d="M77.9203 28.1166C80.1986 29.4185 81.609 31.6968 82.043 34.1921L70.5429 27.5741C72.9297 26.7062 75.5335 26.7062 77.9203 28.1166Z" stroke="#3C838B" stroke-width="1.09785" stroke-miterlimit="22.9256" stroke-linecap="round" stroke-linejoin="round"/>
<path fill-rule="evenodd" clip-rule="evenodd" d="M74.6656 21.4996C76.9439 20.0893 79.6562 19.9808 82.043 20.9572L70.5429 27.5751C70.8684 25.0798 72.3873 22.8015 74.6656 21.4996Z" stroke="#3C838B" stroke-width="1.09785" stroke-miterlimit="22.9256" stroke-linecap="round" stroke-linejoin="round"/>
<path fill-rule="evenodd" clip-rule="evenodd" d="M69.3495 20.3058C67.8306 18.136 65.4438 16.8341 62.9485 16.7256L70.4344 27.5747C71.1938 25.1879 70.8684 22.4756 69.3495 20.3058Z" stroke="#3C838B" stroke-width="1.09785" stroke-miterlimit="22.9256" stroke-linecap="round" stroke-linejoin="round"/>
<path d="M70.5429 27.4665V27.575L58.5004 22.0419C60.7787 20.8485 63.491 20.74 65.8778 21.8249C66.2033 22.0419 66.5287 22.2589 66.8542 22.3674" stroke="#3C838B" stroke-width="1.09785" stroke-miterlimit="22.9256" stroke-linecap="round" stroke-linejoin="round"/>
<path fill-rule="evenodd" clip-rule="evenodd" d="M63.1654 28.1166C65.4438 26.7062 68.156 26.7062 70.5428 27.5741L59.0428 34.1921C59.3683 31.6968 60.8871 29.4185 63.1654 28.1166Z" stroke="#3C838B" stroke-width="1.09785" stroke-miterlimit="22.9256" stroke-linecap="round" stroke-linejoin="round"/>
<path d="M80.8496 58.9289C72.8212 61.8582 66.9627 60.0138 61.7551 58.1695C54.0523 55.5657 49.3872 50.7921 48.3022 47.5374" stroke="#3C838B" stroke-width="1.09785" stroke-miterlimit="22.9256" stroke-linecap="round" stroke-linejoin="round"/>
</svg>
