<svg width="101" height="100" viewBox="0 0 101 100" fill="none" xmlns="http://www.w3.org/2000/svg">
<g clip-path="url(#clip0_2061_4917)">
<path d="M62.1309 59.5779C74.7917 61.2914 83.7399 65.7655 83.7399 70.906C83.7399 74.2378 80.0274 77.284 74.0301 79.4734M68.0329 81.1869C62.7972 82.4245 56.7048 83.0908 50.1364 83.0908C31.4784 83.0908 16.4377 77.6647 16.4377 70.906C16.4377 65.7655 25.386 61.2914 38.0468 59.5779" stroke="#3C838B" stroke-width="1.13485" stroke-miterlimit="22.9256" stroke-linecap="round" stroke-linejoin="round"/>
<path d="M78.6946 70.0493C78.885 70.3349 78.9802 70.6205 78.9802 70.9061C78.9802 74.9994 66.0338 78.236 50.1364 78.236C34.1438 78.236 21.1974 74.9994 21.1974 70.9061C21.1974 70.6205 21.2926 70.3349 21.483 70.0493" stroke="#3C838B" stroke-width="1.13485" stroke-miterlimit="22.9256" stroke-linecap="round" stroke-linejoin="round"/>
<path d="M36.1429 70.0488V65.4795C36.1429 60.0535 40.6171 55.5793 46.0431 55.5793H54.1346C59.6559 55.5793 64.0348 60.0535 64.0348 65.4795V70.0488" stroke="#3C838B" stroke-width="1.13485" stroke-miterlimit="22.9256" stroke-linecap="round" stroke-linejoin="round"/>
<path d="M72.2214 70.0493C70.0319 72.1436 60.9885 73.6667 50.1364 73.6667C49.1844 73.6667 48.2325 73.6667 47.2806 73.6667M41.2833 73.2859C34.6198 72.7148 29.4793 71.4772 27.9562 70.0493" stroke="#3C838B" stroke-width="1.13485" stroke-miterlimit="22.9256" stroke-linecap="round" stroke-linejoin="round"/>
<path d="M57.2759 44.3469C57.2759 44.5373 57.3711 44.7277 57.3711 45.0132C57.3711 49.0114 54.1345 52.248 50.1364 52.248C46.1382 52.248 42.9016 49.0114 42.9016 45.0132C42.9016 44.7277 42.9016 44.4421 42.9016 44.1565" stroke="#3C838B" stroke-width="1.13485" stroke-miterlimit="22.9256" stroke-linecap="round" stroke-linejoin="round"/>
<path d="M59.9414 52.0575C59.9414 52.0575 62.3213 47.869 65.9386 47.7738C69.556 47.6786 70.9839 45.4892 71.5551 44.0612C72.0311 42.6333 75.0773 40.3487 78.0283 47.1075" stroke="#3C838B" stroke-width="1.13485" stroke-miterlimit="22.9256" stroke-linecap="round" stroke-linejoin="round"/>
<path d="M69.7463 57.3882C71.8406 51.7717 76.4099 48.3448 79.8369 48.0592C83.4543 47.6784 84.0254 48.6303 84.1206 54.9131C84.2158 58.1497 84.1206 63.671 84.1206 63.671" stroke="#3C838B" stroke-width="1.13485" stroke-miterlimit="22.9256" stroke-linecap="round" stroke-linejoin="round"/>
<path d="M66.3194 21.9768C66.3194 21.9768 63.7491 24.6422 66.2242 28.45C68.604 32.2578 70.0319 33.2097 67.6521 39.1117" stroke="#3C838B" stroke-width="1.13485" stroke-miterlimit="22.9256" stroke-linecap="round" stroke-linejoin="round"/>
<path d="M74.5061 16.2649C74.5061 16.2649 72.0311 18.9303 74.4109 22.7381C76.8859 26.5459 78.2187 27.4978 75.8388 33.3998" stroke="#3C838B" stroke-width="1.13485" stroke-miterlimit="22.9256" stroke-linecap="round" stroke-linejoin="round"/>
<path d="M33.9534 21.9768C33.9534 21.9768 36.4284 24.6422 33.9534 28.45C31.5735 32.2578 30.2408 33.2097 32.5254 39.1117" stroke="#3C838B" stroke-width="1.13485" stroke-miterlimit="22.9256" stroke-linecap="round" stroke-linejoin="round"/>
<path d="M25.6715 16.2646C25.6715 16.2646 28.2418 18.9301 25.7667 22.7378C23.2917 26.5456 21.959 27.4975 24.3388 33.3996" stroke="#3C838B" stroke-width="1.13485" stroke-miterlimit="22.9256" stroke-linecap="round" stroke-linejoin="round"/>
<path d="M54.7057 35.4933L49.3749 41.3953M49.3749 41.3953L40.9978 45.0127V38.9203C40.9978 35.5885 43.7584 32.8279 47.0902 32.8279H53.0874C56.4192 32.8279 59.1799 35.5885 59.1799 38.9203V45.0127L49.3749 41.3953Z" stroke="#3C838B" stroke-width="1.13485" stroke-miterlimit="22.9256" stroke-linecap="round" stroke-linejoin="round"/>
<path d="M46.6143 32.8284C46.7095 31.0197 48.2326 29.5918 50.1364 29.5918C51.9451 29.5918 53.4682 31.0197 53.5634 32.8284" stroke="#3C838B" stroke-width="1.13485" stroke-miterlimit="22.9256" stroke-linecap="round" stroke-linejoin="round"/>
<path d="M40.2363 52.0575C40.2363 52.0575 37.8564 47.869 34.2391 47.7738C30.6217 47.6786 29.1938 45.4892 28.7178 44.0612C28.1466 42.6333 25.1956 40.3487 22.1494 47.1075" stroke="#3C838B" stroke-width="1.13485" stroke-miterlimit="22.9256" stroke-linecap="round" stroke-linejoin="round"/>
<path d="M30.5264 57.3882C28.4322 51.7717 23.7676 48.3448 20.3407 48.0592C16.8185 47.6784 16.1521 48.6303 16.0569 54.9131C15.9617 58.1497 16.1521 63.671 16.1521 63.671" stroke="#3C838B" stroke-width="1.13485" stroke-miterlimit="22.9256" stroke-linecap="round" stroke-linejoin="round"/>
</g>
<defs>
<clipPath id="clip0_2061_4917">
<rect width="68.6349" height="67.3251" fill="white" transform="translate(15.7712 15.9668)"/>
</clipPath>
</defs>
</svg>
