<svg width="101" height="100" viewBox="0 0 101 100" fill="none" xmlns="http://www.w3.org/2000/svg">
<path d="M9.30878 64.3794H18.3283M35.7411 64.3794H61.7976M64.5535 64.3794H69.6897M75.3269 64.3794H82.6553M85.4113 64.3794H91.7375" stroke="#3C838B" stroke-miterlimit="22.9256" stroke-linecap="round" stroke-linejoin="round"/>
<path d="M61.7976 85.425V48.1567H64.5536V85.425" stroke="#3C838B" stroke-miterlimit="22.9256" stroke-linecap="round" stroke-linejoin="round"/>
<path d="M85.4112 55.7983V85.425M82.6553 85.425V48.1567H85.4112V52.7292" stroke="#3C838B" stroke-miterlimit="22.9256" stroke-linecap="round" stroke-linejoin="round"/>
<path d="M64.5535 51.4766H82.6553M82.6553 57.0511H64.5535" stroke="#3C838B" stroke-miterlimit="22.9256" stroke-linecap="round" stroke-linejoin="round"/>
<path d="M58.9163 85.4248H67.4348" stroke="#3C838B" stroke-miterlimit="22.9256" stroke-linecap="round" stroke-linejoin="round"/>
<path d="M79.774 85.4248H88.2925" stroke="#3C838B" stroke-miterlimit="22.9256" stroke-linecap="round" stroke-linejoin="round"/>
<path d="M28.4753 50.0359H25.7194V85.4251H28.4753V50.0359Z" stroke="#3C838B" stroke-miterlimit="22.9256" stroke-linecap="round" stroke-linejoin="round"/>
<path d="M9.30878 85.4248H44.8859" stroke="#3C838B" stroke-miterlimit="22.9256" stroke-linecap="round" stroke-linejoin="round"/>
<path d="M14.6328 54.2952L22.7128 57.5522C25.5314 58.3039 25.2809 61.6236 24.404 63.7532L22.2117 70.0794" stroke="#3C838B" stroke-miterlimit="22.9256" stroke-linecap="round" stroke-linejoin="round"/>
<path d="M19.1426 76.2803V69.453C19.1426 68.6387 19.8316 67.9497 20.7085 67.9497C21.5227 67.9497 22.2117 68.6387 22.2117 69.453V85.4251H19.1426" stroke="#3C838B" stroke-miterlimit="22.9256" stroke-linecap="round" stroke-linejoin="round"/>
<path d="M25.7194 76.2803H15.8229C14.3197 76.2803 13.067 77.533 13.067 79.0989V85.4251" stroke="#3C838B" stroke-miterlimit="22.9256" stroke-linecap="round" stroke-linejoin="round"/>
<path d="M13.067 79.2869H17.013M19.5184 79.2869H25.7194" stroke="#3C838B" stroke-miterlimit="22.9256" stroke-linecap="round" stroke-linejoin="round"/>
<path d="M13.6933 54.7335C14.4197 54.7335 15.0086 54.1446 15.0086 53.4181C15.0086 52.6917 14.4197 52.1028 13.6933 52.1028C12.9668 52.1028 12.3779 52.6917 12.3779 53.4181C12.3779 54.1446 12.9668 54.7335 13.6933 54.7335Z" stroke="#3C838B" stroke-miterlimit="22.9256" stroke-linecap="round" stroke-linejoin="round"/>
<path d="M39.5619 54.2952L31.4819 57.5522C28.6006 58.3039 28.9138 61.6236 29.7907 63.7532L31.983 70.0794" stroke="#3C838B" stroke-miterlimit="22.9256" stroke-linecap="round" stroke-linejoin="round"/>
<path d="M34.9894 76.2803V69.453C34.9894 68.6387 34.3004 67.9497 33.4862 67.9497C32.6719 67.9497 31.9829 68.6387 31.9829 69.453V85.4251H34.9894" stroke="#3C838B" stroke-miterlimit="22.9256" stroke-linecap="round" stroke-linejoin="round"/>
<path d="M28.4753 76.2803H38.3718C39.8751 76.2803 41.1278 77.533 41.1278 79.0989V85.4251" stroke="#3C838B" stroke-miterlimit="22.9256" stroke-linecap="round" stroke-linejoin="round"/>
<path d="M41.1278 79.2869H37.1191M34.6136 79.2869H28.4753" stroke="#3C838B" stroke-miterlimit="22.9256" stroke-linecap="round" stroke-linejoin="round"/>
<path d="M40.4388 54.7335C41.1652 54.7335 41.7541 54.1446 41.7541 53.4181C41.7541 52.6917 41.1652 52.1028 40.4388 52.1028C39.7123 52.1028 39.1234 52.6917 39.1234 53.4181C39.1234 54.1446 39.7123 54.7335 40.4388 54.7335Z" stroke="#3C838B" stroke-miterlimit="22.9256" stroke-linecap="round" stroke-linejoin="round"/>
<path d="M24.7798 41.3296C24.7798 41.2043 24.7798 41.079 24.7798 40.8911C24.7798 38.7615 26.5336 37.0077 28.6632 37.0077C29.1643 37.0077 29.6027 37.0704 30.0412 37.2583C29.9786 36.9451 29.9786 36.6319 29.9786 36.3187C29.9786 33.2496 32.484 30.7441 35.5531 30.7441C38.1838 30.7441 40.3761 32.5606 40.9398 35.0034C41.6288 34.6902 42.3804 34.5023 43.1947 34.5023C43.8837 34.5023 44.5101 34.6276 45.0738 34.8155C46.2012 33.688 47.8298 32.999 49.5836 32.999C53.0912 32.999 55.9098 35.8176 55.9098 39.3252C55.9098 40.5153 55.5966 41.5801 55.0955 42.5197" stroke="#3C838B" stroke-miterlimit="22.9256" stroke-linecap="round" stroke-linejoin="round"/>
<path d="M55.9098 39.3248C55.9098 39.3248 59.5427 38.1974 61.6723 40.327" stroke="#3C838B" stroke-miterlimit="22.9256" stroke-linecap="round" stroke-linejoin="round"/>
<path d="M23.0886 34.1887H30.2917" stroke="#3C838B" stroke-miterlimit="22.9256" stroke-linecap="round" stroke-linejoin="round"/>
<path d="M16.6371 34.1887H21.5227" stroke="#3C838B" stroke-miterlimit="22.9256" stroke-linecap="round" stroke-linejoin="round"/>
<path d="M19.5184 37.571H26.5963" stroke="#3C838B" stroke-miterlimit="22.9256" stroke-linecap="round" stroke-linejoin="round"/>
<path d="M64.6788 30.744C67.8614 30.744 70.4413 28.164 70.4413 24.9815C70.4413 21.7989 67.8614 19.219 64.6788 19.219C61.4963 19.219 58.9163 21.7989 58.9163 24.9815C58.9163 28.164 61.4963 30.744 64.6788 30.744Z" stroke="#3C838B" stroke-miterlimit="22.9256" stroke-linecap="round" stroke-linejoin="round"/>
<path d="M64.6788 14.1455V17.2147" stroke="#3C838B" stroke-miterlimit="22.9256" stroke-linecap="round" stroke-linejoin="round"/>
<path d="M74.0116 19.532L71.3809 21.0979" stroke="#3C838B" stroke-miterlimit="22.9256" stroke-linecap="round" stroke-linejoin="round"/>
<path d="M74.0116 30.3681L71.3809 28.8022" stroke="#3C838B" stroke-miterlimit="22.9256" stroke-linecap="round" stroke-linejoin="round"/>
<path d="M64.6788 35.7549V32.6858" stroke="#3C838B" stroke-miterlimit="22.9256" stroke-linecap="round" stroke-linejoin="round"/>
<path d="M55.2834 30.3681L57.9142 28.8022" stroke="#3C838B" stroke-miterlimit="22.9256" stroke-linecap="round" stroke-linejoin="round"/>
<path d="M55.2834 19.532L57.9142 21.0979" stroke="#3C838B" stroke-miterlimit="22.9256" stroke-linecap="round" stroke-linejoin="round"/>
<path d="M69.5018 16.5256L68.5623 18.2168" stroke="#3C838B" stroke-miterlimit="22.9256" stroke-linecap="round" stroke-linejoin="round"/>
<path d="M74.3874 24.9814H72.3831" stroke="#3C838B" stroke-miterlimit="22.9256" stroke-linecap="round" stroke-linejoin="round"/>
<path d="M69.5018 33.3748L68.5623 31.6836" stroke="#3C838B" stroke-miterlimit="22.9256" stroke-linecap="round" stroke-linejoin="round"/>
<path d="M59.7932 33.3748L60.7954 31.6836" stroke="#3C838B" stroke-miterlimit="22.9256" stroke-linecap="round" stroke-linejoin="round"/>
<path d="M54.9077 24.9814H56.912" stroke="#3C838B" stroke-miterlimit="22.9256" stroke-linecap="round" stroke-linejoin="round"/>
<path d="M59.7932 16.5256L60.7954 18.2168" stroke="#3C838B" stroke-miterlimit="22.9256" stroke-linecap="round" stroke-linejoin="round"/>
<path d="M53.3417 56.9883V64.3793" stroke="#3C838B" stroke-miterlimit="22.9256" stroke-linecap="round" stroke-linejoin="round"/>
<path fill-rule="evenodd" clip-rule="evenodd" d="M57.0373 45.1504C58.2273 47.0921 58.979 49.4097 58.979 51.3514C58.979 54.4205 56.4109 56.9886 53.3418 56.9886C50.21 56.9886 47.7045 54.4205 47.7045 51.3514C47.7045 49.5349 48.3935 47.3427 49.4583 45.4636C52.1517 40.7033 54.2187 40.3901 57.0373 45.1504Z" stroke="#3C838B" stroke-miterlimit="22.9256"/>
</svg>
